<?xml version="1.0" standalone="no"?>
<!DOCTYPE svg PUBLIC "-//W3C//DTD SVG 20010904//EN"
 "http://www.w3.org/TR/2001/REC-SVG-20010904/DTD/svg10.dtd">
<svg version="1.0" xmlns="http://www.w3.org/2000/svg"
 width="260.000000pt" height="260.000000pt" viewBox="0 0 260.000000 260.000000"
 preserveAspectRatio="xMidYMid meet">

<g transform="translate(0.000000,260.000000) scale(0.100000,-0.100000)"
fill="#000000" stroke="none">
<path d="M533 2067 c-120 -120 -133 -136 -133 -167 0 -19 4 -41 9 -49 5 -8
130 -135 277 -283 l267 -268 -267 -267 c-147 -148 -271 -275 -276 -283 -5 -8
-10 -31 -10 -50 0 -31 13 -47 133 -167 119 -120 136 -133 167 -133 19 0 46 8
60 18 14 10 141 134 283 276 l258 259 162 -163 c89 -90 214 -214 279 -277 160
-155 149 -156 325 20 175 175 175 166 25 320 -60 62 -184 187 -277 279 l-169
167 260 258 c142 142 267 269 276 283 10 14 18 41 18 60 0 31 -13 48 -133 167
-120 120 -136 133 -167 133 -19 0 -41 -4 -49 -9 -8 -5 -135 -130 -282 -277
l-269 -268 -268 268 c-148 147 -275 272 -283 277 -8 5 -30 9 -49 9 -31 0 -47
-13 -167 -133z"/>
</g>
</svg>
